<svg width="100" height="100" viewBox="0 0 100 100" fill="none" xmlns="http://www.w3.org/2000/svg">
<circle cx="29.5" cy="81.5" r="1.5" fill="#FF8234" fill-opacity="0.3"/>
<circle cx="55.5" cy="81.5" r="1.5" fill="#FF8234" fill-opacity="0.3"/>
<circle cx="81.5" cy="81.5" r="1.5" fill="#FF8234" fill-opacity="0.3"/>
<circle cx="16.5" cy="81.5" r="1.5" fill="#FF8234" fill-opacity="0.3"/>
<circle cx="42.5" cy="81.5" r="1.5" fill="#FF8234" fill-opacity="0.3"/>
<circle cx="68.5" cy="81.5" r="1.5" fill="#FF8234" fill-opacity="0.3"/>
<circle cx="29.5" cy="69.5" r="1.5" fill="#FF8234" fill-opacity="0.3"/>
<circle cx="55.5" cy="69.5" r="1.5" fill="#FF8234" fill-opacity="0.3"/>
<circle cx="81.5" cy="69.5" r="1.5" fill="#FF8234" fill-opacity="0.3"/>
<circle cx="16.5" cy="69.5" r="1.5" fill="#FF8234" fill-opacity="0.3"/>
<circle cx="42.5" cy="69.5" r="1.5" fill="#FF8234" fill-opacity="0.3"/>
<circle cx="68.5" cy="69.5" r="1.5" fill="#FF8234" fill-opacity="0.3"/>
<circle cx="29.5" cy="57.5" r="1.5" fill="#FF8234" fill-opacity="0.3"/>
<circle cx="55.5" cy="57.5" r="1.5" fill="#FF8234" fill-opacity="0.3"/>
<circle cx="81.5" cy="57.5" r="1.5" fill="#FF8234" fill-opacity="0.3"/>
<circle cx="16.5" cy="57.5" r="1.5" fill="#FF8234" fill-opacity="0.3"/>
<circle cx="42.5" cy="57.5" r="1.5" fill="#FF8234" fill-opacity="0.3"/>
<circle cx="68.5" cy="57.5" r="1.5" fill="#FF8234" fill-opacity="0.3"/>
<circle cx="29.5" cy="45.5" r="1.5" fill="#FF8234" fill-opacity="0.3"/>
<circle cx="55.5" cy="45.5" r="1.5" fill="#FF8234" fill-opacity="0.3"/>
<circle cx="81.5" cy="45.5" r="1.5" fill="#FF8234" fill-opacity="0.3"/>
<circle cx="16.5" cy="45.5" r="1.5" fill="#FF8234" fill-opacity="0.3"/>
<circle cx="42.5" cy="45.5" r="1.5" fill="#FF8234" fill-opacity="0.3"/>
<circle cx="68.5" cy="45.5" r="1.5" fill="#FF8234" fill-opacity="0.3"/>
<circle cx="29.5" cy="33.5" r="1.5" fill="#FF8234" fill-opacity="0.3"/>
<circle cx="55.5" cy="33.5" r="1.5" fill="#FF8234" fill-opacity="0.3"/>
<circle cx="81.5" cy="33.5" r="1.5" fill="#FF8234" fill-opacity="0.3"/>
<circle cx="16.5" cy="33.5" r="1.5" fill="#FF8234" fill-opacity="0.3"/>
<circle cx="42.5" cy="33.5" r="1.5" fill="#FF8234" fill-opacity="0.3"/>
<circle cx="68.5" cy="33.5" r="1.5" fill="#FF8234" fill-opacity="0.3"/>
<circle cx="29.5" cy="21.5" r="1.5" fill="#FF8234" fill-opacity="0.3"/>
<circle cx="55.5" cy="21.5" r="1.5" fill="#FF8234" fill-opacity="0.3"/>
<circle cx="81.5" cy="21.5" r="1.5" fill="#FF8234" fill-opacity="0.3"/>
<circle cx="16.5" cy="21.5" r="1.5" fill="#FF8234" fill-opacity="0.3"/>
<circle cx="42.5" cy="21.5" r="1.5" fill="#FF8234" fill-opacity="0.3"/>
<circle cx="68.5" cy="21.5" r="1.5" fill="#FF8234" fill-opacity="0.3"/>
<path d="M16.5 69.5L42.5 45L55.5 57.5L81.5 33.5" stroke="#FF8234" stroke-width="2" stroke-linecap="round" stroke-linejoin="round"/>
<path d="M8.5 12.5V90H91.5" stroke="#FF8234" stroke-width="2" stroke-linecap="round" stroke-linejoin="round"/>
</svg>
