<svg width="100" height="100" viewBox="0 0 100 100" fill="none" xmlns="http://www.w3.org/2000/svg">
<mask id="path-1-inside-1" fill="white">
<path d="M83.1179 51.496C83.4566 58.4101 81.7374 65.2693 78.1778 71.2063C74.6182 77.1433 69.378 81.8914 63.1199 84.8503C56.8618 87.8091 49.8668 88.8457 43.0195 87.8291C36.1722 86.8124 29.7802 83.7881 24.6517 79.1387C19.5232 74.4892 15.8886 68.4234 14.2075 61.7082C12.5265 54.9931 12.8744 47.9303 15.2074 41.4129C17.5403 34.8956 21.7535 29.2163 27.3142 25.0935C32.8748 20.9706 39.5332 18.5892 46.4472 18.2505L48.1598 53.2086L83.1179 51.496Z"/>
</mask>
<path d="M83.1179 51.496C83.4566 58.4101 81.7374 65.2693 78.1778 71.2063C74.6182 77.1433 69.378 81.8914 63.1199 84.8503C56.8618 87.8091 49.8668 88.8457 43.0195 87.8291C36.1722 86.8124 29.7802 83.7881 24.6517 79.1387C19.5232 74.4892 15.8886 68.4234 14.2075 61.7082C12.5265 54.9931 12.8744 47.9303 15.2074 41.4129C17.5403 34.8956 21.7535 29.2163 27.3142 25.0935C32.8748 20.9706 39.5332 18.5892 46.4472 18.2505L48.1598 53.2086L83.1179 51.496Z" fill="#FF8234" fill-opacity="0.4" stroke="#FF8234" stroke-width="4" mask="url(#path-1-inside-1)"/>
<mask id="path-2-inside-2" fill="white">
<path d="M51.4212 13.4891C56.0152 13.3447 60.5927 14.1066 64.8922 15.7313C69.1918 17.356 73.1292 19.8116 76.4797 22.9579C79.8303 26.1043 82.5283 29.8798 84.4197 34.0688C86.3111 38.2579 87.3589 42.7785 87.5033 47.3725L52.5206 48.4718L51.4212 13.4891Z"/>
</mask>
<path d="M51.4212 13.4891C56.0152 13.3447 60.5927 14.1066 64.8922 15.7313C69.1918 17.356 73.1292 19.8116 76.4797 22.9579C79.8303 26.1043 82.5283 29.8798 84.4197 34.0688C86.3111 38.2579 87.3589 42.7785 87.5033 47.3725L52.5206 48.4718L51.4212 13.4891Z" fill="#FF8234" fill-opacity="0.4" stroke="#FF8234" stroke-width="4" mask="url(#path-2-inside-2)"/>
</svg>
